<svg width="65" height="64" viewBox="0 0 65 64" fill="none" xmlns="http://www.w3.org/2000/svg">
<rect width="65" height="64" fill="#F5F5F5"/>
<g id="Landing/Desktop" clip-path="url(#clip0_12566_4401)">
<rect width="1440" height="1676" transform="translate(-125 -1384)" fill="#090E44"/>
<g id="Frame 427319945">
<g id="Frame 68">
<g id="Frame 427319953">
<g id="Frame 427319844">
<g id="Frame 427319909">
<g id="Frame 427319907">
<g id="Frame 427319904">
<g id="Logo 11" clip-path="url(#clip1_12566_4401)">
<path id="Vector" d="M19.8539 42.5114V21.6855H16.5687L11.0243 24.4707L12.2872 27.2558L15.8057 25.4966V42.5114H19.8539ZM31.5872 42.8632C36.4872 42.8632 39.1539 40.604 39.1539 36.9373C39.1539 34.0632 37.5094 32.5669 35.5465 31.6003C36.9242 30.6336 38.3613 29.0188 38.3613 26.7003C38.3613 23.5892 35.8687 21.3336 31.5576 21.3336C27.3354 21.3336 24.7798 23.504 24.7798 26.8484C24.7798 29.0781 25.8946 30.5744 27.302 31.6003C25.5724 32.6262 24.0168 34.3558 24.0168 37.0262C24.0205 40.5484 26.6317 42.8632 31.5872 42.8632ZM32.5872 30.4558C30.3872 29.7225 28.4798 29.0188 28.4798 26.9373C28.4798 25.2373 29.7428 24.3262 31.6168 24.3262C33.465 24.3262 34.6983 25.2077 34.6983 26.9077C34.6983 28.6077 33.5242 29.7521 32.5872 30.4558ZM31.5576 39.8447C29.5909 39.8447 28.0946 38.8781 28.0946 36.8225C28.0946 35.0632 29.1798 33.9188 30.3242 33.1855C32.6724 34.067 35.0761 34.5632 35.0761 36.8818C35.0798 38.7003 33.702 39.8447 31.5576 39.8447ZM50.802 40.4595V35.2966H55.8465V32.3632H50.802V27.2003H47.8094V32.3632H42.765V35.2966H47.8094V40.4595H50.802Z" fill="white"/>
<path id="Vector_2" fill-rule="evenodd" clip-rule="evenodd" d="M32.3581 0C50.0284 0 64.358 14.3296 64.358 32C64.358 49.6704 50.0284 64 32.3581 64C14.6877 64 0.358078 49.6704 0.358078 32C0.358078 14.3296 14.6877 0 32.3581 0ZM32.3581 5.33333C17.6284 5.33333 5.69141 17.2704 5.69141 32C5.69141 46.7296 17.6284 58.6667 32.3581 58.6667C47.0877 58.6667 59.0247 46.7296 59.0247 32C59.0247 17.2704 47.0877 5.33333 32.3581 5.33333Z" fill="white"/>
</g>
</g>
</g>
</g>
</g>
</g>
</g>
</g>
</g>
<defs>
<clipPath id="clip0_12566_4401">
<rect width="1440" height="1676" fill="white" transform="translate(-125 -1384)"/>
</clipPath>
<clipPath id="clip1_12566_4401">
<rect width="63.9999" height="64" fill="white" transform="translate(0.343384)"/>
</clipPath>
</defs>
</svg>
