<svg width="48" height="48" viewBox="0 0 48 48" fill="none" xmlns="http://www.w3.org/2000/svg">
  <defs>
    <linearGradient id="logoGradient" x1="0%" y1="0%" x2="100%" y2="100%">
      <stop offset="0%" style="stop-color:#B517FF;stop-opacity:1" />
      <stop offset="50%" style="stop-color:#00DDEB;stop-opacity:1" />
      <stop offset="100%" style="stop-color:#C2FF1A;stop-opacity:1" />
    </linearGradient>
    <filter id="glow">
      <feGaussianBlur stdDeviation="2" result="coloredBlur"/>
      <feMerge> 
        <feMergeNode in="coloredBlur"/>
        <feMergeNode in="SourceGraphic"/>
      </feMerge>
    </filter>
  </defs>
  
  <!-- Background circle -->
  <circle cx="24" cy="24" r="22" fill="url(#logoGradient)" opacity="0.1"/>
  
  <!-- Main gaming controller shape -->
  <path d="M12 18C12 15.7909 13.7909 14 16 14H32C34.2091 14 36 15.7909 36 18V22C36 24.2091 34.2091 26 32 26H30L28 30H20L18 26H16C13.7909 26 12 24.2091 12 22V18Z" 
        fill="url(#logoGradient)" 
        filter="url(#glow)"/>
  
  <!-- D-pad (left side) -->
  <rect x="16" y="19" width="2" height="6" fill="#1C0E3B" rx="1"/>
  <rect x="15" y="20" width="4" height="2" fill="#1C0E3B" rx="1"/>
  
  <!-- Action buttons (right side) -->
  <circle cx="30" cy="19" r="1.5" fill="#1C0E3B"/>
  <circle cx="32" cy="21" r="1.5" fill="#1C0E3B"/>
  <circle cx="28" cy="21" r="1.5" fill="#1C0E3B"/>
  <circle cx="30" cy="23" r="1.5" fill="#1C0E3B"/>
  
  <!-- Center gaming elements -->
  <rect x="22" y="18" width="4" height="1" fill="#C2FF1A" rx="0.5"/>
  <rect x="22" y="20" width="4" height="1" fill="#00DDEB" rx="0.5"/>
  <rect x="22" y="22" width="4" height="1" fill="#B517FF" rx="0.5"/>
  
  <!-- Decorative gaming symbols -->
  <path d="M24 32L26 34L24 36L22 34Z" fill="url(#logoGradient)" opacity="0.8"/>
  <circle cx="24" cy="10" r="2" fill="url(#logoGradient)" opacity="0.6"/>
  <path d="M10 24L12 22L14 24L12 26Z" fill="url(#logoGradient)" opacity="0.6"/>
  <path d="M34 24L36 22L38 24L36 26Z" fill="url(#logoGradient)" opacity="0.6"/>
</svg>